<?xml version="1.0" encoding="iso-8859-1"?>
<!-- Generator: Adobe Illustrator 19.0.0, SVG Export Plug-In . SVG Version: 6.00 Build 0)  -->
<svg version="1.1" id="Layer_1" xmlns="http://www.w3.org/2000/svg" xmlns:xlink="http://www.w3.org/1999/xlink" x="0px" y="0px"
	 viewBox="0 0 492 492" style="enable-background:new 0 0 492 492;" xml:space="preserve">
<g>
	<g>
		<path d="M484.128,104.478l-16.116-16.116c-5.064-5.068-11.816-7.856-19.024-7.856c-7.208,0-13.964,2.788-19.028,7.856
			L203.508,314.81L62.024,173.322c-5.064-5.06-11.82-7.852-19.028-7.852c-7.204,0-13.956,2.792-19.024,7.852l-16.12,16.112
			C2.784,194.51,0,201.27,0,208.47c0,7.204,2.784,13.96,7.852,19.028l159.744,159.736c0.212,0.3,0.436,0.58,0.696,0.836
			l16.12,15.852c5.064,5.048,11.82,7.572,19.084,7.572h0.084c7.212,0,13.968-2.524,19.024-7.572l16.124-15.992
			c0.26-0.256,0.48-0.468,0.612-0.684l244.784-244.76C494.624,132.01,494.624,114.966,484.128,104.478z"/>
	</g>
</g>
<g>
</g>
<g>
</g>
<g>
</g>
<g>
</g>
<g>
</g>
<g>
</g>
<g>
</g>
<g>
</g>
<g>
</g>
<g>
</g>
<g>
</g>
<g>
</g>
<g>
</g>
<g>
</g>
<g>
</g>
</svg>
